#!OML:ASF F:\VICON\USERDATA\INSTALL\rory3\rory3.ASF
:FULLY-SPECIFIED
:DEGREES
802
root 2.17742 17.9795 5.5219 66.136 268.568 -67.7112
lowerback 19.6138 -1.4655 -1.11433
upperback 1.16225 -1.86614 5.1021
thorax -9.53686 -0.797978 6.79727
lowerneck -11.6 0.258283 -2.8668
upperneck 13.5365 1.38795 -4.14003
head 6.03354 0.151594 -0.729675
rclavicle 6.40087e-014 -7.31528e-014
rhumerus -31.922 -22.7199 -53.9626
rradius 128.767
rwrist -2.68808
rhand 12.9289 -4.00901
rfingers 7.12502
rthumb 37.8987 -29.8357
lclavicle 6.40087e-014 -7.31528e-014
lhumerus -50.5836 9.27 82.1246
lradius 45.4107
lwrist 1.71475
lhand -9.52812 47.3711
lfingers 7.12502
lthumb 16.438 76.6947
rfemur -13.9722 7.72744 17.8665
rtibia 38.2635
rfoot -18.776 2.04629
rtoes 9.8908
lfemur -9.49206 -8.58247 -24.241
ltibia 29.8716
lfoot -14.3795 2.85253
ltoes -11.4274
803
root 2.18713 17.9782 5.55364 57.9098 268.524 -59.5974
lowerback 20.162 -1.40956 -0.455292
upperback 0.78763 -1.63459 4.75674
thorax -10.3155 -0.689332 6.01625
lowerneck -11.3883 0.106009 -2.62605
upperneck 14.1245 1.11603 -3.94694
head 6.17981 0.0324411 -0.733183
rclavicle 1.0138e-014 1.27222e-014
rhumerus -32.5131 -20.8813 -54.6634
rradius 131.121
rwrist 1.15831
rhand 12.164 -2.95252
rfingers 7.12502
rthumb 37.1758 -28.9713
lclavicle 1.0138e-014 1.27222e-014
lhumerus -51.0197 8.19535 82.0057
lradius 46.0495
lwrist 2.70048
lhand -10.4418 47.4726
lfingers 7.12502
lthumb 15.5582 76.8668
rfemur -13.9274 8.05642 17.8185
rtibia 38.2333
rfoot -18.7344 1.84667
rtoes 10.6941
lfemur -9.42399 -8.44318 -24.3138
ltibia 29.9413
lfoot -14.4446 2.90697
ltoes -11.0937
804
root 2.21032 17.9781 5.57389 49.3957 268.528 -50.6923
lowerback 19.2371 -1.38002 -0.723571
upperback 1.14772 -1.67898 4.99719
thorax -9.38113 -0.731125 6.37908
lowerneck -12.075 0.212093 -2.59779
upperneck 14.1315 1.32637 -4.16507
head 6.30455 0.11156 -0.789399
rclavicle 2.66371e-014 4.29375e-014
rhumerus -31.1203 -18.9385 -55.9176
rradius 133.017
rwrist 5.16451
rhand 11.8584 -2.93438
rfingers 7.12502
rthumb 36.8868 -29.028
lclavicle 2.66371e-014 4.29375e-014
lhumerus -50.0473 8.73971 82.0967
lradius 46.627
lwrist 3.21398
lhand -10.5417 48.2439
lfingers 7.12502
lthumb 15.4619 77.6455
rfemur -14.4638 8.15082 17.8914
rtibia 38.1979
rfoot -18.6805 1.45178
rtoes 8.78188
lfemur -10.018 -7.80182 -24.063
ltibia 30.1266
lfoot -14.497 2.4129
ltoes -10.7884
805
root 2.22669 17.9756 5.59661 23.2809 268.806 -24.6963
lowerback 19.5071 -1.34528 0.0675482
upperback 1.09267 -1.45328 5.03151
thorax -9.63603 -0.651864 5.91786
lowerneck -12.0293 0.154796 -2.42937
upperneck 14.2644 1.22153 -4.17742
head 6.33835 0.065819 -0.830753
rclavicle -1.61016e-014 -7.95139e-015
rhumerus -31.2573 -17.014 -57.0424
rradius 134.791
rwrist 9.12992
rhand 11.9234 -2.45152
rfingers 7.12502
rthumb 36.9483 -28.5293
lclavicle -1.61016e-014 -7.95139e-015
lhumerus -49.8675 8.45202 81.846
lradius 47.1259
lwrist 3.28632
lhand -10.2716 48.5975
lfingers 7.12502
lthumb 15.7221 77.9788
rfemur -14.4194 7.94114 18.6226
rtibia 38.1541
rfoot -18.7534 0.679865
rtoes 4.43899
lfemur -9.94433 -7.845 -23.4513
ltibia 30.2008
lfoot -14.5602 2.54965
ltoes -10.6446
806
root 2.23894 17.9708 5.60908 3.9512 268.832 -5.43694
lowerback 19.9487 -1.28669 0.855751
upperback 0.773627 -1.18046 4.79627
thorax -10.285 -0.541494 5.16367
lowerneck -11.4392 -0.0908883 -2.38595
upperneck 14.326 0.782327 -3.71917
head 6.24804 -0.101343 -0.729593
rclavicle 7.95139e-015 -1.27222e-014
rhumerus -32.1219 -14.8474 -58.2882
rradius 136.548
rwrist 12.6655
rhand 11.8768 -1.23447
rfingers 7.12502
rthumb 36.9042 -27.3236
lclavicle 7.95139e-015 -1.27222e-014
lhumerus -50.0623 7.41691 81.5964
lradius 47.6399
lwrist 3.88581
lhand -11.0862 48.7543
lfingers 7.12502
lthumb 14.9375 78.1957
rfemur -14.4299 8.01572 19.1394
rtibia 38.2262
rfoot -18.9153 -0.444307
rtoes 0.612351
lfemur -9.85822 -7.939 -23.0635
ltibia 30.1648
lfoot -14.5293 2.67919
ltoes -10.4756
807
root 2.25176 17.9735 5.63359 26.6036 268.554 -27.9593
lowerback 19.6422 -1.26806 0.175528
upperback 0.855585 -1.32781 4.68254
thorax -9.99743 -0.586075 5.44888
lowerneck -11.4865 0.113378 -1.96121
upperneck 14.2285 1.04914 -4.14031
head 6.23134 0.0183106 -0.909684
rclavicle -1.94809e-014 -1.27222e-014
rhumerus -31.7006 -11.9618 -59.7608
rradius 138.189
rwrist 15.8198
rhand 11.2671 -0.251402
rfingers 7.12502
rthumb 36.3272 -26.4869
lclavicle -1.94809e-014 -1.27222e-014
lhumerus -49.6858 7.22431 81.8948
lradius 48.3059
lwrist 5.7936
lhand -13.3798 49.6878
lfingers 7.12502
lthumb 12.7271 79.2799
rfemur -14.7027 8.47197 18.4741
rtibia 38.4105
rfoot -19.1625 -1.10084
rtoes 1.08645
lfemur -9.95628 -7.87484 -23.7022
ltibia 30.0314
lfoot -14.4734 2.6625
ltoes -9.45818
808
root 2.25954 17.9869 5.66711 36.2637 268.213 -37.5316
lowerback 19.3979 -1.31697 -0.240895
upperback 0.904131 -1.50418 4.49592
thorax -9.78511 -0.658036 5.51251
lowerneck -11.2519 0.243803 -1.82391
upperneck 13.9573 1.15993 -3.95688
head 6.1048 0.105405 -0.862499
rclavicle 3.97569e-015 -2.06736e-014
rhumerus -31.4489 -8.66882 -61.4436
rradius 139.585
rwrist 18.7567
rhand 10.1622 -0.089286
rfingers 7.12502
rthumb 35.2802 -26.5794
lclavicle 3.97569e-015 -2.06736e-014
lhumerus -49.5024 6.81618 82.0928
lradius 49.2034
lwrist 8.58976
lhand -16.6569 51.0429
lfingers 7.12502
lthumb 9.56643 80.8057
rfemur -14.9183 8.9502 17.8788
rtibia 38.5903
rfoot -19.4622 -1.3472
rtoes 2.87419
lfemur -10.0004 -7.69823 -24.201
ltibia 29.8621
lfoot -14.4023 2.31939
ltoes -6.97355
809
root 2.27819 17.9879 5.67738 37.4044 268.161 -38.5867
lowerback 19.4777 -1.34706 -0.386149
upperback 0.782151 -1.5687 4.44842
thorax -9.95669 -0.674588 5.57123
lowerneck -11.3227 0.346749 -1.44715
upperneck 14.17 1.29051 -4.28094
head 6.19002 0.155392 -1.01724
rclavicle -6.75868e-015 3.65764e-014
rhumerus -31.7238 -5.28199 -63.0794
rradius 140.536
rwrist 21.6746
rhand 9.0024 0.323158
rfingers 7.12502
rthumb 34.1795 -26.4206
lclavicle -6.75868e-015 3.65764e-014
lhumerus -49.486 6.80214 82.0474
lradius 49.7629
lwrist 9.69143
lhand -18.2532 51.1375
lfingers 7.12502
lthumb 8.02594 80.9651
rfemur -15.1848 8.91422 17.8545
rtibia 38.876
rfoot -19.6745 -2.24449
rtoes -0.723942
lfemur -10.0022 -7.09691 -24.1916
ltibia 29.5279
lfoot -14.178 1.48155
ltoes -6.56573
810
root 2.27868 17.9859 5.65376 28.0729 268.428 -29.3695
lowerback 19.5032 -1.31786 -0.567
upperback 0.785878 -1.55155 4.70683
thorax -9.95731 -0.65409 5.96267
lowerneck -11.4368 0.345132 -1.89354
upperneck 14.441 1.33128 -3.97896
head 6.29242 0.166112 -0.845775
rclavicle 3.20043e-014 -1.90833e-014
rhumerus -32.2068 -2.20407 -64.6386
rradius 140.864
rwrist 24.4394
rhand 7.48661 1.63823
rfingers 7.12502
rthumb 32.7388 -25.4167
lclavicle 3.20043e-014 -1.90833e-014
lhumerus -49.331 6.95052 82.0771
lradius 50.221
lwrist 10.6415
lhand -18.9702 50.8201
lfingers 7.12502
lthumb 7.33396 80.6729
rfemur -15.1012 9.49347 18.4658
rtibia 39.13
rfoot -20.0214 -3.48652
rtoes -2.05771
lfemur -9.70902 -6.89796 -23.6984
ltibia 29.1764
lfoot -14.0323 0.753028
ltoes -6.31762
